<svg width="450" height="600" viewBox="0 0 450 600" xmlns="http://www.w3.org/2000/svg">
  <!-- Tablet Ekranı Arkaplanı -->
  <rect width="450" height="600" rx="20" fill="#f5f5f5"/>
  
  <!-- Durum Çubuğu -->
  <rect width="450" height="30" fill="#2E7D32" />
  <text x="225" y="20" font-family="Roboto, sans-serif" font-size="14" fill="white" text-anchor="middle">20:45</text>
  
  <!-- Yan Menü -->
  <rect y="30" width="120" height="570" fill="white" />
  
  <!-- AppBar -->
  <rect x="120" y="30" width="330" height="50" fill="white" />
  <text x="170" y="60" font-family="Roboto, sans-serif" font-size="18" fill="#2E7D32" font-weight="500">FinTech AI</text>
  <circle cx="400" cy="55" r="15" fill="#2E7D32" opacity="0.1"/>
  <text x="400" y="60" font-family="Roboto, sans-serif" font-size="18" fill="#2E7D32" text-anchor="middle">A</text>
  
  <!-- Menü Öğeleri -->
  <rect x="0" y="120" width="120" height="40" fill="rgba(46, 125, 50, 0.1)" />
  <rect x="117" y="120" width="3" height="40" fill="#2E7D32" />
  <text x="40" y="145" font-family="Roboto, sans-serif" font-size="14" fill="#2E7D32" font-weight="500">Dashboard</text>
  <circle cx="15" cy="140" r="8" fill="#2E7D32" />
  
  <text x="40" y="195" font-family="Roboto, sans-serif" font-size="14" fill="#757575">Harcamalar</text>
  <circle cx="15" cy="190" r="8" fill="#757575" />
  
  <text x="40" y="245" font-family="Roboto, sans-serif" font-size="14" fill="#757575">Gelirler</text>
  <circle cx="15" cy="240" r="8" fill="#757575" />
  
  <text x="40" y="295" font-family="Roboto, sans-serif" font-size="14" fill="#757575">Vergi Planı</text>
  <circle cx="15" cy="290" r="8" fill="#757575" />
  
  <text x="40" y="345" font-family="Roboto, sans-serif" font-size="14" fill="#757575">Nakit Akışı</text>
  <circle cx="15" cy="340" r="8" fill="#757575" />
  
  <text x="40" y="395" font-family="Roboto, sans-serif" font-size="14" fill="#757575">Tavsiyeler</text>
  <circle cx="15" cy="390" r="8" fill="#757575" />
  
  <!-- Ana İçerik -->
  <!-- Dashboard Başlık -->
  <text x="140" y="110" font-family="Roboto, sans-serif" font-size="24" fill="#212121" font-weight="500">Finansal Dashboard</text>
  
  <!-- Özet Kartları -->
  <rect x="140" y="130" width="145" height="80" rx="8" fill="white" />
  <text x="155" y="150" font-family="Roboto, sans-serif" font-size="12" fill="#757575">Aylık Gelir</text>
  <text x="155" y="175" font-family="Roboto, sans-serif" font-size="18" fill="#2E7D32" font-weight="500">13.500 ₺</text>
  
  <rect x="295" y="130" width="145" height="80" rx="8" fill="white" />
  <text x="310" y="150" font-family="Roboto, sans-serif" font-size="12" fill="#757575">Aylık Gider</text>
  <text x="310" y="175" font-family="Roboto, sans-serif" font-size="18" fill="#D32F2F" font-weight="500">10.000 ₺</text>
  
  <rect x="140" y="220" width="145" height="80" rx="8" fill="white" />
  <text x="155" y="240" font-family="Roboto, sans-serif" font-size="12" fill="#757575">Tasarruf</text>
  <text x="155" y="265" font-family="Roboto, sans-serif" font-size="18" fill="#2E7D32" font-weight="500">3.500 ₺</text>
  
  <rect x="295" y="220" width="145" height="80" rx="8" fill="white" />
  <text x="310" y="240" font-family="Roboto, sans-serif" font-size="12" fill="#757575">Vergi İndirimleri</text>
  <text x="310" y="265" font-family="Roboto, sans-serif" font-size="18" fill="#673AB7" font-weight="500">7.400 ₺</text>
  
  <!-- Gelir-Gider Grafiği -->
  <rect x="140" y="310" width="300" height="130" rx="8" fill="white" />
  <text x="155" y="330" font-family="Roboto, sans-serif" font-size="16" fill="#212121" font-weight="500">Gelir-Gider Dengesi</text>
  
  <!-- Basit Graf Gösterimi -->
  <line x1="160" y1="410" x2="420" y2="410" stroke="#e0e0e0" stroke-width="1" />
  <line x1="160" y1="350" x2="160" y2="410" stroke="#e0e0e0" stroke-width="1" />
  
  <!-- Gelir Barları -->
  <rect x="185" y="360" width="20" height="50" fill="#4CAF50" opacity="0.8" />
  <rect x="215" y="355" width="20" height="55" fill="#4CAF50" opacity="0.8" />
  <rect x="245" y="350" width="20" height="60" fill="#4CAF50" opacity="0.8" />
  <rect x="275" y="345" width="20" height="65" fill="#4CAF50" opacity="0.8" />
  <rect x="305" y="340" width="20" height="70" fill="#4CAF50" opacity="0.8" />
  <rect x="335" y="335" width="20" height="75" fill="#4CAF50" opacity="0.8" />
  
  <!-- Gider Barları -->
  <rect x="195" y="380" width="20" height="30" fill="#F44336" opacity="0.8" />
  <rect x="225" y="375" width="20" height="35" fill="#F44336" opacity="0.8" />
  <rect x="255" y="370" width="20" height="40" fill="#F44336" opacity="0.8" />
  <rect x="285" y="365" width="20" height="45" fill="#F44336" opacity="0.8" />
  <rect x="315" y="375" width="20" height="35" fill="#F44336" opacity="0.8" />
  <rect x="345" y="370" width="20" height="40" fill="#F44336" opacity="0.8" />
  
  <!-- Harcama Dağılımı Grafiği -->
  <rect x="140" y="450" width="145" height="140" rx="8" fill="white" />
  <text x="155" y="470" font-family="Roboto, sans-serif" font-size="16" fill="#212121" font-weight="500">Harcama Dağılımı</text>
  
  <!-- Basit Pasta Grafik -->
  <circle cx="215" cy="520" r="50" fill="transparent" stroke="#e0e0e0" stroke-width="1" />
  <path d="M 215 520 L 215 470 A 50 50 0 0 1 258 502 Z" fill="#2E7D32" opacity="0.8" />
  <path d="M 215 520 L 258 502 A 50 50 0 0 1 248 552 Z" fill="#1976D2" opacity="0.8" />
  <path d="M 215 520 L 248 552 A 50 50 0 0 1 182 552 Z" fill="#673AB7" opacity="0.8" />
  <path d="M 215 520 L 182 552 A 50 50 0 0 1 172 502 Z" fill="#F57C00" opacity="0.8" />
  <path d="M 215 520 L 172 502 A 50 50 0 0 1 215 470 Z" fill="#D32F2F" opacity="0.8" />
  
  <!-- Vergi İndirimleri Grafiği -->
  <rect x="295" y="450" width="145" height="140" rx="8" fill="white" />
  <text x="310" y="470" font-family="Roboto, sans-serif" font-size="16" fill="#212121" font-weight="500">Vergi İndirimleri</text>
  
  <!-- Basit Yatay Bar Grafik -->
  <line x1="320" y1="530" x2="420" y2="530" stroke="#e0e0e0" stroke-width="1" />
  
  <rect x="320" y="490" width="60" height="10" fill="#9C27B0" opacity="0.8" />
  <text x="315" y="499" font-family="Roboto, sans-serif" font-size="10" fill="#212121" text-anchor="end">Eğitim</text>
  
  <rect x="320" y="510" width="80" height="10" fill="#00796B" opacity="0.8" />
  <text x="315" y="519" font-family="Roboto, sans-serif" font-size="10" fill="#212121" text-anchor="end">Sağlık</text>
  
  <rect x="320" y="530" width="50" height="10" fill="#FFC107" opacity="0.8" />
  <text x="315" y="539" font-family="Roboto, sans-serif" font-size="10" fill="#212121" text-anchor="end">Bağış</text>
  
  <rect x="320" y="550" width="90" height="10" fill="#607D8B" opacity="0.8" />
  <text x="315" y="559" font-family="Roboto, sans-serif" font-size="10" fill="#212121" text-anchor="end">Emeklilik</text>
  
  <!-- ChatBot Butonu -->
  <circle cx="400" cy="410" r="25" fill="#2E7D32" />
  <text x="400" y="415" font-family="Roboto, sans-serif" font-size="20" fill="white" text-anchor="middle">?</text>
</svg> 